<mxfile host="app.diagrams.net" modified="2024-03-26T03:11:53.151Z" agent="Mozilla/5.0 (X11; Linux x86_64) AppleWebKit/537.36 (KHTML, like Gecko) Chrome/112.0.0.0 Safari/537.36" version="24.0.7" etag="bKgh1NF3IDhUVGhC1Kaf" type="github">
  <diagram name="Page-1" id="Fo0tlmSOsMekl8_aoRak">
    <mxGraphModel>
      <root>
        <mxCell id="0" />
        <mxCell id="1" parent="0" />
      </root>
    </mxGraphModel>
  </diagram>
</mxfile>
